<svg width="27" height="28" viewBox="0 0 27 28" fill="none" xmlns="http://www.w3.org/2000/svg">
<path d="M19.5757 3.05176e-05C17.2266 3.05176e-05 14.972 1.236 13.5005 3.18913C12.0289 1.236 9.77434 3.05176e-05 7.42526 3.05176e-05C3.26711 3.05176e-05 0 3.69267 0 8.3924C0 14.1602 4.59016 18.86 11.5429 26.0011L13.5005 28L15.458 25.9859C22.4108 18.86 27.0009 14.1602 27.0009 8.3924C27.0009 3.69267 23.7338 3.05176e-05 19.5757 3.05176e-05ZM13.6355 23.7276L13.5005 23.8801L13.3655 23.7276C6.93924 17.151 2.70009 12.8022 2.70009 8.3924C2.70009 5.34063 4.72517 3.0518 7.42526 3.0518C9.50433 3.0518 11.5294 4.56243 12.2449 6.65289H14.7695C15.4715 4.56243 17.4966 3.0518 19.5757 3.0518C22.2758 3.0518 24.3009 5.34063 24.3009 8.3924C24.3009 12.8022 20.0617 17.151 13.6355 23.7276Z" fill="#4B57DB"/>
</svg>
